<?xml version="1.0" encoding="UTF-8" standalone="no"?>
<svg width="10px" height="13px" viewBox="0 0 10 13" version="1.1" xmlns="http://www.w3.org/2000/svg" xmlns:xlink="http://www.w3.org/1999/xlink">
    <!-- Generator: Sketch 3.6.1 (26313) - http://www.bohemiancoding.com/sketch -->
    <title>Bitcoin_Symbol</title>
    <desc>Created with Sketch.</desc>
    <defs></defs>
    <g id="Page-1" stroke="none" stroke-width="1" fill="none" fill-rule="evenodd" opacity="0.8">
        <g id="Manual-payment" transform="translate(-296.000000, -517.000000)" fill="#5D5D5D">
            <g id="Invoice" transform="translate(236.000000, 86.000000)">
                <g id="Manual-info" transform="translate(31.000000, 282.000000)">
                    <g id="From-Copy-2" transform="translate(19.000000, 137.000000)">
                        <g id="Group-Copy-3">
                            <path d="M16.8269795,14.5288175 L17.2432895,12.7813644 L16.1835913,12.5249446 L15.7798967,14.2344097 C15.4992028,14.1679305 15.2153551,14.1014513 14.9346612,14.0444691 L15.3383558,12.3350041 L14.2660421,12.0785843 L13.8497321,13.8260375 C13.6226539,13.772221 13.3924219,13.7310672 13.1653437,13.6772507 L11.7051048,13.3258607 L11.4370263,14.456007 C11.4370263,14.456007 12.2286461,14.6301192 12.2002614,14.6459475 C12.6291868,14.7535805 12.7111873,15.0353257 12.695418,15.2505916 L12.2254923,17.2418018 C12.253877,17.2544645 12.2917234,17.2544645 12.3327236,17.2829556 C12.2917234,17.2702929 12.2664925,17.2702929 12.2254923,17.2576302 L11.5821041,20.0434251 C11.5284884,20.1763835 11.3928722,20.366324 11.0995629,20.2998448 C11.1121784,20.3125075 10.3205586,20.1099043 10.3205586,20.1099043 L9.81909423,21.3350209 L11.2004866,21.6579198 C11.4559495,21.724399 11.7114125,21.7782155 11.9511061,21.8478604 L11.5347961,23.6111419 L12.5944943,23.8675616 L13.0108043,22.1201085 C13.3072675,22.1992504 13.5879614,22.2688953 13.8560398,22.3353745 L13.4397298,24.0701649 L14.499428,24.3265847 L14.915738,22.5633031 C16.7260558,22.8862021 18.0790634,22.7374153 18.6278357,21.0817668 C19.0693766,19.7616799 18.5868354,19.008249 17.6217531,18.5112379 C18.3282186,18.3497884 18.8391445,17.8907654 18.9716068,16.9505596 C19.1450693,15.6589638 18.1673716,14.9846749 16.8269795,14.5288175 Z M16.5872858,20.3789867 C16.2782072,21.6990736 14.0547332,21.0121219 13.34196,20.8380097 L13.8907323,18.4954095 C14.616121,18.6726874 16.9089799,18.9955863 16.5872858,20.3789867 L16.5872858,20.3789867 Z M16.8805952,16.9505596 C16.5999013,18.1471852 14.7485833,17.5710321 14.1461953,17.4222454 L14.6571212,15.2980768 C15.2468937,15.4436979 17.1770584,15.7001176 16.8805952,16.9505596 L16.8805952,16.9505596 Z" id="Bitcoin_Symbol" transform="translate(14.405328, 18.202584) rotate(-13.000000) translate(-14.405328, -18.202584) "></path>
                        </g>
                    </g>
                </g>
            </g>
        </g>
    </g>
</svg>