<?xml version="1.0" encoding="UTF-8" standalone="no"?>
<svg width="21px" height="21px" viewBox="0 0 21 21" version="1.1" xmlns="http://www.w3.org/2000/svg" xmlns:xlink="http://www.w3.org/1999/xlink">
    <!-- Generator: Sketch 3.6.1 (26313) - http://www.bohemiancoding.com/sketch -->
    <title>help</title>
    <desc>Created with Sketch.</desc>
    <defs></defs>
    <g id="Page-1" stroke="none" stroke-width="1" fill="none" fill-rule="evenodd">
        <g id="Artboard-1-Copy-2" transform="translate(-236.000000, -680.000000)" fill="#FFFFFF">
            <g id="Group" transform="translate(236.000000, 86.000000)">
                <g id="Group-2" transform="translate(0.000000, 594.000000)">
                    <g id="help">
                        <path id="Shape" d="M8.16277278,6.39404248 C8.082668,6.47916102 8.03054801,6.53407514 7.99141617,6.57526896 C8.06405611,6.49837603 8.16277278,6.39404248 8.16277278,6.39404248 L8.16277278,6.39404248 Z"></path>
                        <path d="M11.7190501,7.04113418 C11.9853742,7.36331457 12.1175989,7.74317289 12.1175989,8.18067624 C12.1175989,8.49370976 12.0263136,8.79483262 11.8447473,9.08588733 C11.7450933,9.2506297 11.6138393,9.40991026 11.4499141,9.56182069 L10.9042442,10.0917798 C10.3809019,10.5970292 10.0428751,11.0445678 9.88828931,11.4363368 C9.73370349,11.8271516 9.65641057,12.3424691 9.65641057,12.9813352 L10.8707026,12.9813352 C10.8707026,12.4184408 10.9358777,11.9928152 11.0653241,11.7044914 C11.194737,11.4161676 11.4778319,11.064737 11.9145753,10.6482583 C12.5151771,10.0761841 12.9137594,9.64236579 13.1111593,9.347626 C13.3085592,9.05288622 13.4082131,8.66848736 13.4082131,8.19436364 C13.4082131,7.41273399 13.1391106,6.77018283 12.5999348,6.26677596 C12.0607925,5.7633691 11.343766,5.51258693 10.4479181,5.51258693 C9.4794637,5.51258693 8.7177486,5.80637254 8.16273931,6.39400958 C7.60773002,6.98164662 7.33022537,7.75778156 7.33022537,8.72340148 L8.54451741,8.72340148 C8.56684499,8.14218042 8.66094216,7.69737274 8.82389664,7.38891265 C9.11442291,6.83516509 9.63963979,6.55783068 10.3994803,6.55783068 C11.0131706,6.55786358 11.4536297,6.71895378 11.7190501,7.04113418 L11.7190501,7.04113418 Z" id="Shape"></path>
                        <path d="M20.9258441,10.5 C20.9258441,4.93962437 16.339653,0.431862622 10.6826087,0.431862622 C5.02553088,0.431862622 0.439373276,4.93962437 0.439373276,10.5 C0.439373276,16.0603427 5.02553088,20.5681374 10.6826087,20.5681374 C16.339653,20.5681374 20.9258441,16.0603427 20.9258441,10.5 L20.9258441,10.5 Z M1.37057041,10.5 C1.37057041,5.44487377 5.53956723,1.34714186 10.6826087,1.34714186 C15.8256502,1.34714186 19.994647,5.44487377 19.994647,10.5 C19.994647,15.5551262 15.8256502,19.6528581 10.6826087,19.6528581 C5.53956723,19.6528581 1.37057041,15.5551262 1.37057041,10.5 L1.37057041,10.5 Z" id="Shape"></path>
                        <rect id="Rectangle-path" x="9.62849274" y="14.0934038" width="1.35769734" height="1.39397639"></rect>
                    </g>
                </g>
            </g>
        </g>
    </g>
</svg>